<?xml version="1.0" encoding="iso-8859-1"?>
<!-- Generator: Adobe Illustrator 16.0.0, SVG Export Plug-In . SVG Version: 6.00 Build 0)  -->
<!DOCTYPE svg PUBLIC "-//W3C//DTD SVG 1.1//EN" "http://www.w3.org/Graphics/SVG/1.1/DTD/svg11.dtd">
<svg version="1.1" id="Capa_1" xmlns="http://www.w3.org/2000/svg" xmlns:xlink="http://www.w3.org/1999/xlink" x="0px" y="0px"
	 width="485.213px" height="485.212px" viewBox="0 0 485.213 485.212" style="enable-background:new 0 0 485.213 485.212;"
	 xml:space="preserve">
<g>
	<path d="M102.63,252.326l-23.305-19.434l52.066-62.427l253.432,168.953l19.84-36.067l-26.448-14.547l77.623-46.967l1.862,90.716
		l-26.444-14.547l-35.772,64.952L137.22,210.8L102.63,252.326z M245.538,202.122l93.141,62.104l90.416-158.174l26.205,14.986
		l-0.41-90.711l-78.36,45.695l26.205,14.956l-74.248,130.011l-88.81-59.2l-33.57,40.277l25.379,16.909L245.538,202.122z
		 M192.455,265.823l-25.382-16.909l-87.749,105.28l23.305,19.429L192.455,265.823z M30.328,454.886v-60.649h30.324v-30.331H30.328
		v-60.648h30.324V272.93H30.328v-60.648h30.324v-30.327H30.328v-60.651h30.324V90.978H30.328V30.327h30.324V0H30.328H0.001v485.212
		h485.211v-30.326H30.328z"/>
</g>
<g>
</g>
<g>
</g>
<g>
</g>
<g>
</g>
<g>
</g>
<g>
</g>
<g>
</g>
<g>
</g>
<g>
</g>
<g>
</g>
<g>
</g>
<g>
</g>
<g>
</g>
<g>
</g>
<g>
</g>
</svg>
