<svg xmlns="http://www.w3.org/2000/svg" width="485.213" height="485.212"><path d="M102.63 252.326l-23.305-19.434 52.066-62.427 253.432 168.953 19.84-36.067-26.448-14.547 77.623-46.967 1.862 90.716-26.444-14.547-35.772 64.952L137.22 210.8l-34.59 41.526zm142.908-50.204l93.141 62.104 90.416-158.174 26.205 14.986-.41-90.711-78.36 45.695 26.205 14.956-74.248 130.011-88.81-59.2-33.57 40.277 25.379 16.909 14.052-16.853zm-53.083 63.701l-25.382-16.909-87.749 105.28 23.305 19.429 89.826-107.8zM30.328 454.886v-60.649h30.324v-30.331H30.328v-60.648h30.324V272.93H30.328v-60.648h30.324v-30.327H30.328v-60.651h30.324V90.978H30.328V30.327h30.324V0H.001v485.212h485.211v-30.326H30.328z"/></svg>